<svg width="124" height="124" viewBox="0 0 124 124" fill="none" xmlns="http://www.w3.org/2000/svg">
<path d="M61.9997 2.22913C94.9933 2.22914 121.771 29.0065 121.771 62.0001C121.771 94.9937 94.9933 121.771 61.9997 121.771C29.0062 121.771 2.22876 94.9937 2.22876 62.0001C2.22874 29.0065 29.0062 2.22913 61.9997 2.22913Z" stroke="#EDEDED" stroke-width="4.12214"/>
<path d="M68.8847 9.72592V15.864C76.6086 17.0063 83.7164 20.0306 89.7208 24.4754L94.0555 20.1472C86.8892 14.6478 78.2756 10.9512 68.8847 9.72592ZM55.082 9.74524C45.6965 10.9776 37.0914 14.6819 29.9305 20.1794L34.2394 24.5076H34.2587C40.26 20.0599 47.3609 17.0129 55.082 15.864V9.74524ZM58.1349 22.2534V42.9156C55.6318 43.4209 53.2921 44.3961 51.2368 45.7624L36.6225 31.1546L31.1543 36.6229L45.7814 51.25C44.4188 53.3027 43.4261 55.6365 42.9217 58.1353H22.253V65.8643H42.9217C43.426 68.3618 44.4196 70.6782 45.7814 72.7302L31.1543 87.3638L36.6225 92.8321L51.2368 78.2178C53.2921 79.5841 55.6318 80.5722 58.1349 81.0775V101.746H65.8639V81.0775C68.3694 80.5717 70.6924 79.5668 72.7492 78.1985L87.3763 92.8321L92.8446 87.3638L78.2175 72.7302C79.5787 70.6786 80.5794 68.3612 81.0836 65.8643H101.746V58.1353H81.0836C80.5793 55.6371 79.5796 53.3024 78.2175 51.25L92.8446 36.6229L87.3763 31.1546L72.7492 45.7817C70.6924 44.4134 68.3694 43.4214 65.8639 42.9156V22.2534H58.1349ZM103.82 29.9115L99.4915 34.2397C103.948 40.2467 106.986 47.3706 108.135 55.1016H114.273C113.041 45.7053 109.33 37.0786 103.82 29.9115ZM20.1597 29.9437C14.6606 37.1039 10.9566 45.7159 9.72559 55.1016H15.8701C17.0175 47.3831 20.0478 40.2793 24.4944 34.2784L20.1597 29.9437ZM9.72559 68.8979C10.9531 78.2823 14.6508 86.8938 20.1469 94.0558L24.4751 89.7211C20.0335 83.7211 17.0143 76.6153 15.8701 68.8979H9.72559ZM108.135 68.8979C106.986 76.6239 103.946 83.7333 99.4915 89.7404L103.82 94.0687C109.325 86.9041 113.039 78.2887 114.273 68.8979H108.135ZM34.2394 99.4919L29.9112 103.82C37.074 109.327 45.6922 113.039 55.082 114.274V108.129C47.3575 106.978 40.242 103.945 34.2394 99.4919ZM89.7208 99.5048C83.7143 103.954 76.6118 107.005 68.8847 108.148V114.274C78.2766 113.047 86.8892 109.339 94.0555 103.839L89.7401 99.5048H89.7208Z" fill="#EDEDED"/>
</svg>
