<svg width="128" height="128" viewBox="0 0 128 128" fill="none" xmlns="http://www.w3.org/2000/svg">
<path fill-rule="evenodd" clip-rule="evenodd" d="M62.2713 81.88C61.1851 80.2947 55.3906 71.8373 55.3906 71.8373L59.8068 83.9832L46.1157 85.9708L59.8068 87.9584L54.5069 98.3375C54.5069 98.3375 61.1191 91.3863 62.0532 90.404C61.6683 105.454 61.5736 109.158 61.5736 109.158C61.5736 109.158 27.787 93.4791 46.5573 58.8082C46.5573 58.8082 23.1495 32.9709 44.349 17.071C44.349 17.071 8.1332 38.9332 31.0994 76.4749C31.0994 76.4749 12.1081 57.9251 22.0453 39.1539C22.0453 39.1539 4.82085 63.4458 25.7994 90.1668C25.7994 90.1668 20.058 86.6331 14.979 73.1625C14.979 73.1625 18.6839 113.264 63.5499 113.79C63.5498 113.796 63.5498 113.796 63.5498 113.796C63.6994 113.796 63.8485 113.795 63.9971 113.794C64.1456 113.795 64.2948 113.796 64.4442 113.796C64.4442 113.796 64.4442 113.796 64.4442 113.79C109.31 113.264 113.015 73.1625 113.015 73.1625C107.936 86.6331 102.195 90.1668 102.195 90.1668C123.173 63.4458 105.949 39.1539 105.949 39.1539C115.886 57.9251 96.8947 76.4749 96.8947 76.4749C119.861 38.9332 83.6451 17.071 83.6451 17.071C104.845 32.9709 81.4368 58.8082 81.4368 58.8082C100.207 93.4791 66.4206 109.158 66.4206 109.158C66.4206 109.158 66.3258 105.454 65.9408 90.404C66.875 91.3863 73.4872 98.3375 73.4872 98.3375L68.1873 87.9584L81.8784 85.9708L68.1873 83.9832L72.6035 71.8373C72.6035 71.8373 66.8089 80.2947 65.7227 81.88C65.2309 62.6557 64.0108 14.9568 64.0049 14.7316C64.0027 14.2027 64.0027 14.1998 64.0027 14.1998C64.0027 14.1998 64.0027 14.2002 63.997 14.4196C63.9914 14.2003 63.9914 14.1998 63.9914 14.1998C63.9914 14.1998 63.9914 14.2027 63.989 14.7316C63.9795 15.1078 62.762 62.6992 62.2714 81.88" fill="#EDEDED"/>
<path d="M64.0003 0.718872C29.0509 0.718872 0.71875 29.0505 0.71875 64C0.71875 98.9494 29.0509 127.282 64.0003 127.282C98.9499 127.282 127.281 98.9494 127.281 64C127.281 29.0505 98.9499 0.718872 64.0003 0.718872V0.718872Z" stroke="#EDEDED" stroke-width="0.0301341" stroke-miterlimit="10"/>
<path fill-rule="evenodd" clip-rule="evenodd" d="M64.0003 0.718872C29.0514 0.718872 0.71875 29.0511 0.71875 64C0.71875 98.9489 29.0514 127.282 64.0003 127.282C98.9493 127.282 127.281 98.9489 127.281 64C127.281 29.0511 98.9493 0.718872 64.0003 0.718872ZM64.0003 8.29998C94.7621 8.29998 119.7 33.2382 119.7 64C119.7 94.7617 94.7621 119.7 64.0003 119.7C33.2386 119.7 8.30035 94.7617 8.30035 64C8.30035 33.2382 33.2386 8.29998 64.0003 8.29998Z" fill="#EDEDED"/>
</svg>
